<mxfile host="app.diagrams.net" modified="2023-07-26T07:21:39.254Z" agent="Mozilla/5.0 (Macintosh; Intel Mac OS X 10.15; rv:109.0) Gecko/20100101 Firefox/115.0" etag="PeAEXItXo2htMSlr5ML8" version="21.6.5">
  <diagram name="Page-1" id="Tn4H3zuSq-0qdtHd99vh">
    <mxGraphModel dx="954" dy="633" grid="1" gridSize="10" guides="1" tooltips="1" connect="1" arrows="1" fold="1" page="1" pageScale="1" pageWidth="850" pageHeight="1100" math="0" shadow="0">
      <root>
        <mxCell id="0" />
        <mxCell id="1" parent="0" />
        <mxCell id="AqXSU9uybI4dMEmBLLGT-4" value="" style="edgeStyle=orthogonalEdgeStyle;rounded=0;orthogonalLoop=1;jettySize=auto;html=1;" edge="1" parent="1" source="AqXSU9uybI4dMEmBLLGT-1" target="AqXSU9uybI4dMEmBLLGT-2">
          <mxGeometry relative="1" as="geometry" />
        </mxCell>
        <mxCell id="AqXSU9uybI4dMEmBLLGT-1" value="Preprocess" style="rounded=1;whiteSpace=wrap;html=1;" vertex="1" parent="1">
          <mxGeometry x="40" y="285" width="200" height="70" as="geometry" />
        </mxCell>
        <mxCell id="AqXSU9uybI4dMEmBLLGT-5" value="" style="edgeStyle=orthogonalEdgeStyle;rounded=0;orthogonalLoop=1;jettySize=auto;html=1;" edge="1" parent="1" source="AqXSU9uybI4dMEmBLLGT-2" target="AqXSU9uybI4dMEmBLLGT-3">
          <mxGeometry relative="1" as="geometry" />
        </mxCell>
        <mxCell id="AqXSU9uybI4dMEmBLLGT-2" value="Any" style="ellipse;whiteSpace=wrap;html=1;aspect=fixed;" vertex="1" parent="1">
          <mxGeometry x="280" y="285" width="70" height="70" as="geometry" />
        </mxCell>
        <mxCell id="AqXSU9uybI4dMEmBLLGT-9" value="" style="edgeStyle=orthogonalEdgeStyle;rounded=0;orthogonalLoop=1;jettySize=auto;html=1;" edge="1" parent="1" source="AqXSU9uybI4dMEmBLLGT-3" target="AqXSU9uybI4dMEmBLLGT-8">
          <mxGeometry relative="1" as="geometry" />
        </mxCell>
        <mxCell id="AqXSU9uybI4dMEmBLLGT-3" value="Solve" style="rounded=1;whiteSpace=wrap;html=1;" vertex="1" parent="1">
          <mxGeometry x="420" y="290" width="120" height="60" as="geometry" />
        </mxCell>
        <mxCell id="AqXSU9uybI4dMEmBLLGT-11" value="yes" style="edgeStyle=orthogonalEdgeStyle;rounded=0;orthogonalLoop=1;jettySize=auto;html=1;" edge="1" parent="1" source="AqXSU9uybI4dMEmBLLGT-8" target="AqXSU9uybI4dMEmBLLGT-10">
          <mxGeometry relative="1" as="geometry" />
        </mxCell>
        <mxCell id="AqXSU9uybI4dMEmBLLGT-8" value="Terminate?" style="rhombus;whiteSpace=wrap;html=1;rounded=1;" vertex="1" parent="1">
          <mxGeometry x="610" y="280" width="80" height="80" as="geometry" />
        </mxCell>
        <mxCell id="AqXSU9uybI4dMEmBLLGT-10" value="Postprocess" style="whiteSpace=wrap;html=1;rounded=1;" vertex="1" parent="1">
          <mxGeometry x="730" y="290" width="120" height="60" as="geometry" />
        </mxCell>
        <mxCell id="AqXSU9uybI4dMEmBLLGT-13" value="no" style="endArrow=classic;html=1;rounded=0;exitX=0.5;exitY=1;exitDx=0;exitDy=0;entryX=0.5;entryY=1;entryDx=0;entryDy=0;" edge="1" parent="1" source="AqXSU9uybI4dMEmBLLGT-8" target="AqXSU9uybI4dMEmBLLGT-2">
          <mxGeometry width="50" height="50" relative="1" as="geometry">
            <mxPoint x="450" y="440" as="sourcePoint" />
            <mxPoint x="320" y="440" as="targetPoint" />
            <Array as="points">
              <mxPoint x="650" y="440" />
              <mxPoint x="315" y="440" />
            </Array>
          </mxGeometry>
        </mxCell>
      </root>
    </mxGraphModel>
  </diagram>
</mxfile>
